# xmcd CD database file
#
# Track frame offsets:
#	150
#	17570
#	35650
#
# Disc length: 703 seconds
#
# Revision: 7
# Processed by: cddbd v1.5PL3 Copyright (c) Steve Scherf et al.
# Submitted via: CDex 1.50Beta7
#
DISCID=1b02bd03
DTITLE=モーニング娘。 - サマーナイトタウン
DYEAR=1998
DGENRE=JPop
TTITLE0=サマーナイトタウン
TTITLE1=A MEMORY OF SUMMER '98
TTITLE2=サマーナイトタウン (Instrumental)
EXTD=YEAR: 1998
EXTT0=
EXTT1=
EXTT2=
PLAYORDER=
